<svg
   id="wave"
   style="transform:rotate(180deg); transition: 0.3s"
   viewBox="0 0 1440 360"
   version="1.1"
   xmlns="http://www.w3.org/2000/svg"
 >
   <defs>
     <linearGradient id="sw-gradient-0" x1="0" x2="0" y1="1" y2="0">
       <stop stop-color="rgba(0, 0, 0, 1)" offset="0%" />
       <stop stop-color="rgba(105.11, 11.015, 255, 1)" offset="100%" />
     </linearGradient>
   </defs>
   <path
     style="transform:translate(0, 0px); opacity:1"
     fill="url(#sw-gradient-0)"
     d="M0,324L34.3,282C68.6,240,137,156,206,144C274.3,132,343,192,411,180C480,168,549,84,617,90C685.7,96,754,192,823,240C891.4,288,960,288,1029,252C1097.1,216,1166,144,1234,102C1302.9,60,1371,48,1440,54C1508.6,60,1577,84,1646,132C1714.3,180,1783,252,1851,252C1920,252,1989,180,2057,156C2125.7,132,2194,156,2263,138C2331.4,120,2400,60,2469,48C2537.1,36,2606,72,2674,126C2742.9,180,2811,252,2880,234C2948.6,216,3017,108,3086,90C3154.3,72,3223,144,3291,162C3360,180,3429,144,3497,114C3565.7,84,3634,60,3703,72C3771.4,84,3840,132,3909,180C3977.1,228,4046,276,4114,270C4182.9,264,4251,204,4320,156C4388.6,108,4457,72,4526,96C4594.3,120,4663,204,4731,198C4800,192,4869,96,4903,48L4937.1,0L4937.1,360L4902.9,360C4868.6,360,4800,360,4731,360C4662.9,360,4594,360,4526,360C4457.1,360,4389,360,4320,360C4251.4,360,4183,360,4114,360C4045.7,360,3977,360,3909,360C3840,360,3771,360,3703,360C3634.3,360,3566,360,3497,360C3428.6,360,3360,360,3291,360C3222.9,360,3154,360,3086,360C3017.1,360,2949,360,2880,360C2811.4,360,2743,360,2674,360C2605.7,360,2537,360,2469,360C2400,360,2331,360,2263,360C2194.3,360,2126,360,2057,360C1988.6,360,1920,360,1851,360C1782.9,360,1714,360,1646,360C1577.1,360,1509,360,1440,360C1371.4,360,1303,360,1234,360C1165.7,360,1097,360,1029,360C960,360,891,360,823,360C754.3,360,686,360,617,360C548.6,360,480,360,411,360C342.9,360,274,360,206,360C137.1,360,69,360,34,360L0,360Z"
   />
   <defs>
     <linearGradient id="sw-gradient-1" x1="0" x2="0" y1="1" y2="0">
       <stop stop-color="rgba(0, 0, 0, 1)" offset="0%" />
       <stop stop-color="rgba(132.9, 0, 255, 1)" offset="100%" />
     </linearGradient>
   </defs>
   <path
     style="transform:translate(0, 50px); opacity:0.9"
     fill="url(#sw-gradient-1)"
     d="M0,144L34.3,174C68.6,204,137,264,206,258C274.3,252,343,180,411,144C480,108,549,108,617,120C685.7,132,754,156,823,162C891.4,168,960,156,1029,126C1097.1,96,1166,48,1234,60C1302.9,72,1371,144,1440,192C1508.6,240,1577,264,1646,258C1714.3,252,1783,216,1851,186C1920,156,1989,132,2057,120C2125.7,108,2194,108,2263,90C2331.4,72,2400,36,2469,48C2537.1,60,2606,120,2674,168C2742.9,216,2811,252,2880,258C2948.6,264,3017,240,3086,246C3154.3,252,3223,288,3291,276C3360,264,3429,204,3497,162C3565.7,120,3634,96,3703,108C3771.4,120,3840,168,3909,198C3977.1,228,4046,240,4114,210C4182.9,180,4251,108,4320,120C4388.6,132,4457,228,4526,252C4594.3,276,4663,228,4731,222C4800,216,4869,252,4903,270L4937.1,288L4937.1,360L4902.9,360C4868.6,360,4800,360,4731,360C4662.9,360,4594,360,4526,360C4457.1,360,4389,360,4320,360C4251.4,360,4183,360,4114,360C4045.7,360,3977,360,3909,360C3840,360,3771,360,3703,360C3634.3,360,3566,360,3497,360C3428.6,360,3360,360,3291,360C3222.9,360,3154,360,3086,360C3017.1,360,2949,360,2880,360C2811.4,360,2743,360,2674,360C2605.7,360,2537,360,2469,360C2400,360,2331,360,2263,360C2194.3,360,2126,360,2057,360C1988.6,360,1920,360,1851,360C1782.9,360,1714,360,1646,360C1577.1,360,1509,360,1440,360C1371.4,360,1303,360,1234,360C1165.7,360,1097,360,1029,360C960,360,891,360,823,360C754.3,360,686,360,617,360C548.6,360,480,360,411,360C342.9,360,274,360,206,360C137.1,360,69,360,34,360L0,360Z"
   />
   <defs>
     <linearGradient id="sw-gradient-2" x1="0" x2="0" y1="1" y2="0">
       <stop stop-color="rgba(0, 0, 0, 1)" offset="0%" />
       <stop stop-color="rgba(55.501, 11, 255, 1)" offset="100%" />
     </linearGradient>
   </defs>
   <path
     style="transform:translate(0, 100px); opacity:0.8"
     fill="url(#sw-gradient-2)"
     d="M0,288L34.3,294C68.6,300,137,312,206,282C274.3,252,343,180,411,150C480,120,549,132,617,156C685.7,180,754,216,823,222C891.4,228,960,204,1029,162C1097.1,120,1166,60,1234,36C1302.9,12,1371,24,1440,66C1508.6,108,1577,180,1646,192C1714.3,204,1783,156,1851,126C1920,96,1989,84,2057,96C2125.7,108,2194,144,2263,162C2331.4,180,2400,180,2469,168C2537.1,156,2606,132,2674,156C2742.9,180,2811,252,2880,234C2948.6,216,3017,108,3086,108C3154.3,108,3223,216,3291,216C3360,216,3429,108,3497,60C3565.7,12,3634,24,3703,48C3771.4,72,3840,108,3909,126C3977.1,144,4046,144,4114,150C4182.9,156,4251,168,4320,150C4388.6,132,4457,84,4526,102C4594.3,120,4663,204,4731,234C4800,264,4869,240,4903,228L4937.1,216L4937.1,360L4902.9,360C4868.6,360,4800,360,4731,360C4662.9,360,4594,360,4526,360C4457.1,360,4389,360,4320,360C4251.4,360,4183,360,4114,360C4045.7,360,3977,360,3909,360C3840,360,3771,360,3703,360C3634.3,360,3566,360,3497,360C3428.6,360,3360,360,3291,360C3222.9,360,3154,360,3086,360C3017.1,360,2949,360,2880,360C2811.4,360,2743,360,2674,360C2605.7,360,2537,360,2469,360C2400,360,2331,360,2263,360C2194.3,360,2126,360,2057,360C1988.6,360,1920,360,1851,360C1782.9,360,1714,360,1646,360C1577.1,360,1509,360,1440,360C1371.4,360,1303,360,1234,360C1165.7,360,1097,360,1029,360C960,360,891,360,823,360C754.3,360,686,360,617,360C548.6,360,480,360,411,360C342.9,360,274,360,206,360C137.1,360,69,360,34,360L0,360Z"
   />
</svg>